<svg width="1440" height="81" viewBox="0 0 1440 81" fill="none" xmlns="http://www.w3.org/2000/svg">
<g clip-path="url(#clip0_1_262)">
<g clip-path="url(#clip1_1_262)">
<path d="M429.913 79.6352L458.766 1.36485H473.756L502.609 79.6352H489.197L482.547 60.6366H449.411L442.761 79.6352H429.913ZM466.317 14.1062H465.866L453.243 49.9422H478.828L466.318 14.107L466.317 14.1062ZM513.204 79.6352V1.36485H525.038L565.839 57.7919H566.29L565.839 1.36485H578.687V79.6352H566.965L525.94 23.4357H525.489L525.94 79.6352H513.204ZM597.622 79.6352V1.36485H623.432C650.37 1.36485 664.346 17.7471 664.346 40.5C664.346 63.2529 650.37 79.6352 623.432 79.6352H597.622ZM622.868 12.2869H610.358V68.7123H622.868C643.494 68.7123 651.046 55.63 651.046 40.4992C651.046 25.3684 643.494 12.2861 622.868 12.2861V12.2869ZM675.278 57.3375H687.901C687.901 65.414 694.776 70.9884 705.934 70.9884C717.543 70.9884 724.418 66.0968 724.418 57.7919C724.418 38.4523 676.518 53.8107 676.518 23.2081C676.518 9.78399 688.014 0 706.047 0C723.404 0 735.126 8.53254 735.126 22.4119H722.615C722.615 14.448 715.515 10.0108 706.047 10.0108C696.58 10.0108 689.254 14.107 689.254 21.9567C689.254 41.1828 737.492 25.5968 737.492 56.768C737.492 71.216 725.997 81 705.934 81C686.211 81 675.278 71.6712 675.278 57.3375H675.278ZM744.368 12.1727V1.36485H810.415V12.1727H783.703V79.6352H770.967V12.1727H744.368H744.368ZM819.206 48.4631V1.36485H831.942V48.3497C831.942 61.8872 838.367 69.6236 851.441 69.6236C864.628 69.6236 870.939 61.8881 870.939 48.3497V1.36485H883.675V48.4631C883.675 72.2399 870.488 81 851.441 81C832.505 81 819.206 72.2399 819.206 48.4631ZM901.145 79.6352V1.36485H926.955C953.892 1.36485 967.868 17.7471 967.868 40.5C967.868 63.2529 953.892 79.6352 926.955 79.6352H901.145ZM926.391 12.2869H913.881V68.7123H926.391C947.017 68.7123 954.568 55.63 954.568 40.4992C954.568 25.3684 947.017 12.2861 926.391 12.2861V12.2869ZM982.294 79.6352V1.36485H995.03V79.6352H982.294ZM1009.57 40.5C1009.57 17.1785 1024.9 0 1048.23 0C1071.11 0 1087 17.1785 1087 40.5C1087 63.8215 1071.11 81 1048.23 81C1024.9 81 1009.57 63.8215 1009.57 40.5ZM1022.76 40.5C1022.76 57.3375 1032.9 69.6236 1048.23 69.6236C1063.67 69.6236 1073.81 57.2233 1073.81 40.5C1073.81 23.7767 1063.67 11.3765 1048.23 11.3765C1032.9 11.3765 1022.76 23.6625 1022.76 40.5ZM386.432 12.5647L393.288 5.67L424.225 36.3431L429.107 41.1836L424.26 46.0582L393.54 76.95L386.634 70.1039L410.506 46.0995L364.032 46.2372V46.1546L336.632 46.2356L360.657 70.0545L353.802 76.95L324.887 48.2817L322.864 46.2761L317.982 41.4364L324.837 34.5416L353.548 5.67L360.453 12.5161L336.582 36.5197L383.057 36.382V36.4654L410.457 36.3836L386.432 12.5647ZM-254.55 12.5647L-247.694 5.67L-216.757 36.3431L-211.875 41.1836L-216.723 46.0582L-247.442 76.95L-254.348 70.1039L-230.476 46.0995L-276.951 46.2372V46.1546L-304.35 46.2356L-280.326 70.0545L-287.181 76.95L-316.096 48.2817L-318.119 46.2761L-323 41.4364L-316.145 34.5416L-287.434 5.67L-280.529 12.5161L-304.4 36.5197L-257.926 36.382V36.4654L-230.525 36.3836L-254.55 12.5647ZM-199.796 79.6117V0H-182.997L-156.418 61.9075H-156.072L-129.838 0H-113.269V79.6117H-126.272L-125.236 18.9775H-125.696L-151.47 79.6117H-161.48L-187.254 20.0183H-187.715L-186.794 79.6117H-199.796ZM-95.4352 47.9058V0H-82.4327V47.79C-82.4327 61.56 -75.8739 69.4283 -62.5269 69.4283C-49.0646 69.4283 -42.621 61.56 -42.621 47.79V0H-29.6193V47.9058C-29.6193 72.09 -43.0816 81 -62.5269 81C-81.8586 81 -95.4352 72.09 -95.4352 47.9058ZM-20.5296 10.9925V0H46.8975V10.9925H19.6276V79.6117H6.62515V10.9917H-20.5296V10.9925ZM48.7383 10.9925V0H116.165V10.9925H88.8947V79.6117H75.8931V10.9917H48.7375L48.7383 10.9925ZM126.751 79.6117V0H138.832L180.484 57.3942H180.944L180.485 0H193.603V79.6117H181.636L139.753 22.4483H139.293L139.753 79.6117H126.751ZM212.932 79.6117V0H225.934V79.6117H212.932ZM245.379 79.6117V0H258.381V40.2683L295.546 0H310.735L278.402 34.4825L312.346 79.6117H297.502L270.003 43.3925L258.381 55.7742V79.6117H245.379Z" fill="#EA4809"/>
</g>
<g clip-path="url(#clip2_1_262)">
<path d="M1839.91 79.6352L1868.77 1.36485H1883.76L1912.61 79.6352H1899.2L1892.55 60.6366H1859.41L1852.76 79.6352H1839.91ZM1876.32 14.1062H1875.87L1863.24 49.9422H1888.83L1876.32 14.107L1876.32 14.1062ZM1923.2 79.6352V1.36485H1935.04L1975.84 57.7919H1976.29L1975.84 1.36485H1988.69V79.6352H1976.97L1935.94 23.4357H1935.49L1935.94 79.6352H1923.2ZM2007.62 79.6352V1.36485H2033.43C2060.37 1.36485 2074.35 17.7471 2074.35 40.5C2074.35 63.2529 2060.37 79.6352 2033.43 79.6352H2007.62ZM2032.87 12.2869H2020.36V68.7123H2032.87C2053.49 68.7123 2061.05 55.63 2061.05 40.4992C2061.05 25.3684 2053.49 12.2861 2032.87 12.2861V12.2869ZM2085.28 57.3375H2097.9C2097.9 65.414 2104.78 70.9884 2115.93 70.9884C2127.54 70.9884 2134.42 66.0968 2134.42 57.7919C2134.42 38.4523 2086.52 53.8107 2086.52 23.2081C2086.52 9.78399 2098.01 0 2116.05 0C2133.4 0 2145.13 8.53254 2145.13 22.4119H2132.62C2132.62 14.448 2125.51 10.0108 2116.05 10.0108C2106.58 10.0108 2099.25 14.107 2099.25 21.9567C2099.25 41.1828 2147.49 25.5968 2147.49 56.768C2147.49 71.216 2136 81 2115.93 81C2096.21 81 2085.28 71.6712 2085.28 57.3375H2085.28ZM2154.37 12.1727V1.36485H2220.42V12.1727H2193.7V79.6352H2180.97V12.1727H2154.37H2154.37ZM2229.21 48.4631V1.36485H2241.94V48.3497C2241.94 61.8872 2248.37 69.6236 2261.44 69.6236C2274.63 69.6236 2280.94 61.8881 2280.94 48.3497V1.36485H2293.67V48.4631C2293.67 72.2399 2280.49 81 2261.44 81C2242.51 81 2229.21 72.2399 2229.21 48.4631ZM2311.15 79.6352V1.36485H2336.95C2363.89 1.36485 2377.87 17.7471 2377.87 40.5C2377.87 63.2529 2363.89 79.6352 2336.95 79.6352H2311.15ZM2336.39 12.2869H2323.88V68.7123H2336.39C2357.02 68.7123 2364.57 55.63 2364.57 40.4992C2364.57 25.3684 2357.02 12.2861 2336.39 12.2861V12.2869ZM2392.29 79.6352V1.36485H2405.03V79.6352H2392.29ZM2419.57 40.5C2419.57 17.1785 2434.9 0 2458.23 0C2481.11 0 2497 17.1785 2497 40.5C2497 63.8215 2481.11 81 2458.23 81C2434.9 81 2419.57 63.8215 2419.57 40.5ZM2432.76 40.5C2432.76 57.3375 2442.9 69.6236 2458.23 69.6236C2473.67 69.6236 2483.81 57.2233 2483.81 40.5C2483.81 23.7767 2473.67 11.3765 2458.23 11.3765C2442.9 11.3765 2432.76 23.6625 2432.76 40.5ZM1796.43 12.5647L1803.29 5.67L1834.23 36.3431L1839.11 41.1836L1834.26 46.0582L1803.54 76.95L1796.63 70.1039L1820.51 46.0995L1774.03 46.2372V46.1546L1746.63 46.2356L1770.66 70.0545L1763.8 76.95L1734.89 48.2817L1732.86 46.2761L1727.98 41.4364L1734.84 34.5416L1763.55 5.67L1770.45 12.5161L1746.58 36.5197L1793.06 36.382V36.4654L1820.46 36.3836L1796.43 12.5647ZM1155.45 12.5647L1162.31 5.67L1193.24 36.3431L1198.13 41.1836L1193.28 46.0582L1162.56 76.95L1155.65 70.1039L1179.52 46.0995L1133.05 46.2372V46.1546L1105.65 46.2356L1129.67 70.0545L1122.82 76.95L1093.9 48.2817L1091.88 46.2761L1087 41.4364L1093.86 34.5416L1122.57 5.67L1129.47 12.5161L1105.6 36.5197L1152.07 36.382V36.4654L1179.47 36.3836L1155.45 12.5647ZM1210.2 79.6117V0H1227L1253.58 61.9075H1253.93L1280.16 0H1296.73V79.6117H1283.73L1284.76 18.9775H1284.3L1258.53 79.6117H1248.52L1222.75 20.0183H1222.29L1223.21 79.6117H1210.2ZM1314.56 47.9058V0H1327.57V47.79C1327.57 61.56 1334.13 69.4283 1347.47 69.4283C1360.94 69.4283 1367.38 61.56 1367.38 47.79V0H1380.38V47.9058C1380.38 72.09 1366.92 81 1347.47 81C1328.14 81 1314.56 72.09 1314.56 47.9058ZM1389.47 10.9925V0H1456.9V10.9925H1429.63V79.6117H1416.63V10.9917H1389.47V10.9925ZM1458.74 10.9925V0H1526.16V10.9925H1498.89V79.6117H1485.89V10.9917H1458.74L1458.74 10.9925ZM1536.75 79.6117V0H1548.83L1590.48 57.3942H1590.94L1590.49 0H1603.6V79.6117H1591.64L1549.75 22.4483H1549.29L1549.75 79.6117H1536.75ZM1622.93 79.6117V0H1635.93V79.6117H1622.93ZM1655.38 79.6117V0H1668.38V40.2683L1705.55 0H1720.74L1688.4 34.4825L1722.35 79.6117H1707.5L1680 43.3925L1668.38 55.7742V79.6117H1655.38Z" fill="#EA4809"/>
</g>
</g>
<defs>
<clipPath id="clip0_1_262">
<rect width="2880" height="80.5156" fill="white" transform="translate(-322.547 0.304688)"/>
</clipPath>
<clipPath id="clip1_1_262">
<rect width="1410" height="81" fill="white" transform="translate(-323)"/>
</clipPath>
<clipPath id="clip2_1_262">
<rect width="1410" height="81" fill="white" transform="translate(1087)"/>
</clipPath>
</defs>
</svg>
